# xmcd
#
# Track frame offsets:
#	150
#	16661
#	31067
#	47353
#	63309
#	76391
#	99143
#	112375
#	127218
#	144010
#	159842
#	178480
#	194075
#	212810
#	227856
#
# Disc length: 3301 seconds
#
# Revision: 1
# Processed by: cddbd v1.5.2PL0 Copyright (c) Steve Scherf et al.
# Submitted via: audiograbber 1.83.01
#
DISCID=c80ce30f
DTITLE=Various Artist - 200 Country Hits 1978-1985 Disc 12
DYEAR=1900
DGENRE=Karaoke
TTITLE0=Alabama - If you're gonna play in Texas ( you gotta have a fiddle in th
TTITLE0=e band)
TTITLE1=Conway Twitty - I don't know a thing about love
TTITLE2=Ricky Skaggs - Honey (open that door)
TTITLE3=The Judds - Why not me
TTITLE4=Merle Haggard - Let's chase each other around the room
TTITLE5=Willie Nelson - City of New Orleans
TTITLE6=Exile - Give me one more chance
TTITLE7=The Judds - Mama he's crazy
TTITLE8=Exile - I don't want to be a memory
TTITLE9=Earl Thomas Conley - Angel in disguise
TTITLE10=Ann Murray and Dave Loggins - Nobody loves me like you do
TTITLE11=Merle Haggard - Someday when things are good
TTITLE12=Conway Twitty - Somebody's needin somebody
TTITLE13=Earl Thomas Conley - Chance of lovin you
TTITLE14=The Oak Ridge Boys - Everyday
EXTD=
EXTT0=
EXTT1=
EXTT2=
EXTT3=
EXTT4=
EXTT5=
EXTT6=
EXTT7=
EXTT8=
EXTT9=
EXTT10=
EXTT11=
EXTT12=
EXTT13=
EXTT14=
PLAYORDER=
